<svg width="24" height="24" viewBox="0 0 24 24" fill="none" xmlns="http://www.w3.org/2000/svg">
<path d="M12 22L10 16H2L4 22H12ZM12 22H16M12 13V12.5C12 10.614 12 9.672 11.414 9.086C10.828 8.5 9.886 8.5 8 8.5C6.114 8.5 5.172 8.5 4.586 9.086C4 9.672 4 10.614 4 12.5V13" stroke="black" stroke-width="1.5" stroke-linecap="round" stroke-linejoin="round"/>
<path d="M19 13C19 13.5304 18.7893 14.0391 18.4142 14.4142C18.0391 14.7893 17.5304 15 17 15C16.4696 15 15.9609 14.7893 15.5858 14.4142C15.2107 14.0391 15 13.5304 15 13C15 12.4696 15.2107 11.9609 15.5858 11.5858C15.9609 11.2107 16.4696 11 17 11C17.5304 11 18.0391 11.2107 18.4142 11.5858C18.7893 11.9609 19 12.4696 19 13ZM10 4C10 4.53043 9.78929 5.03914 9.41421 5.41421C9.03914 5.78929 8.53043 6 8 6C7.46957 6 6.96086 5.78929 6.58579 5.41421C6.21071 5.03914 6 4.53043 6 4C6 3.46957 6.21071 2.96086 6.58579 2.58579C6.96086 2.21071 7.46957 2 8 2C8.53043 2 9.03914 2.21071 9.41421 2.58579C9.78929 2.96086 10 3.46957 10 4Z" stroke="black" stroke-width="1.5"/>
<path d="M14 17.5H20C20.5304 17.5 21.0391 17.7107 21.4142 18.0858C21.7893 18.4609 22 18.9696 22 19.5V20C22 20.5304 21.7893 21.0391 21.4142 21.4142C21.0391 21.7893 20.5304 22 20 22H19" stroke="black" stroke-width="1.5" stroke-linecap="round"/>
</svg>
