<svg width="24" height="19" viewBox="0 0 24 19" fill="none" xmlns="http://www.w3.org/2000/svg">
<g clip-path="url(#clip0_30_42)">
<path d="M23.1 7.125H18V0.890625C18 0.398555 17.5972 0 17.1 0H11.7C11.2028 0 10.8 0.398555 10.8 0.890625V3.5625H8.4V0.59375C8.4 0.265703 8.1315 0 7.8 0H7.2C6.8685 0 6.6 0.265703 6.6 0.59375V3.5625H4.2V0.59375C4.2 0.265703 3.9315 0 3.6 0H3C2.6685 0 2.4 0.265703 2.4 0.59375V3.5625H0.9C0.40275 3.5625 0 3.96105 0 4.45312V17.8125C0 18.4682 0.537375 19 1.2 19H22.8C23.4626 19 24 18.4682 24 17.8125V8.01562C24 7.52355 23.5969 7.125 23.1 7.125ZM4.8 14.9922C4.8 15.2382 4.59863 15.4375 4.35 15.4375H2.85C2.60138 15.4375 2.4 15.2382 2.4 14.9922V13.5078C2.4 13.2618 2.60138 13.0625 2.85 13.0625H4.35C4.59863 13.0625 4.8 13.2618 4.8 13.5078V14.9922ZM4.8 11.4297C4.8 11.6757 4.59863 11.875 4.35 11.875H2.85C2.60138 11.875 2.4 11.6757 2.4 11.4297V9.94531C2.4 9.69928 2.60138 9.5 2.85 9.5H4.35C4.59863 9.5 4.8 9.69928 4.8 9.94531V11.4297ZM4.8 7.86719C4.8 8.11322 4.59863 8.3125 4.35 8.3125H2.85C2.60138 8.3125 2.4 8.11322 2.4 7.86719V6.38281C2.4 6.13678 2.60138 5.9375 2.85 5.9375H4.35C4.59863 5.9375 4.8 6.13678 4.8 6.38281V7.86719ZM9.6 14.9922C9.6 15.2382 9.39863 15.4375 9.15 15.4375H7.65C7.40138 15.4375 7.2 15.2382 7.2 14.9922V13.5078C7.2 13.2618 7.40138 13.0625 7.65 13.0625H9.15C9.39863 13.0625 9.6 13.2618 9.6 13.5078V14.9922ZM9.6 11.4297C9.6 11.6757 9.39863 11.875 9.15 11.875H7.65C7.40138 11.875 7.2 11.6757 7.2 11.4297V9.94531C7.2 9.69928 7.40138 9.5 7.65 9.5H9.15C9.39863 9.5 9.6 9.69928 9.6 9.94531V11.4297ZM9.6 7.86719C9.6 8.11322 9.39863 8.3125 9.15 8.3125H7.65C7.40138 8.3125 7.2 8.11322 7.2 7.86719V6.38281C7.2 6.13678 7.40138 5.9375 7.65 5.9375H9.15C9.39863 5.9375 9.6 6.13678 9.6 6.38281V7.86719ZM15.6 11.4297C15.6 11.6757 15.3986 11.875 15.15 11.875H13.65C13.4014 11.875 13.2 11.6757 13.2 11.4297V9.94531C13.2 9.69928 13.4014 9.5 13.65 9.5H15.15C15.3986 9.5 15.6 9.69928 15.6 9.94531V11.4297ZM15.6 7.86719C15.6 8.11322 15.3986 8.3125 15.15 8.3125H13.65C13.4014 8.3125 13.2 8.11322 13.2 7.86719V6.38281C13.2 6.13678 13.4014 5.9375 13.65 5.9375H15.15C15.3986 5.9375 15.6 6.13678 15.6 6.38281V7.86719ZM15.6 4.30469C15.6 4.55072 15.3986 4.75 15.15 4.75H13.65C13.4014 4.75 13.2 4.55072 13.2 4.30469V2.82031C13.2 2.57428 13.4014 2.375 13.65 2.375H15.15C15.3986 2.375 15.6 2.57428 15.6 2.82031V4.30469ZM21.6 14.9922C21.6 15.2382 21.3986 15.4375 21.15 15.4375H19.65C19.4014 15.4375 19.2 15.2382 19.2 14.9922V13.5078C19.2 13.2618 19.4014 13.0625 19.65 13.0625H21.15C21.3986 13.0625 21.6 13.2618 21.6 13.5078V14.9922ZM21.6 11.4297C21.6 11.6757 21.3986 11.875 21.15 11.875H19.65C19.4014 11.875 19.2 11.6757 19.2 11.4297V9.94531C19.2 9.69928 19.4014 9.5 19.65 9.5H21.15C21.3986 9.5 21.6 9.69928 21.6 9.94531V11.4297Z" fill="black"/>
</g>
<defs>
<clipPath id="clip0_30_42">
<rect width="24" height="19" fill="white"/>
</clipPath>
</defs>
</svg>
