<svg width="24" height="24" viewBox="0 0 24 24" fill="none" xmlns="http://www.w3.org/2000/svg">
<path d="M12 21.1429C17.0495 21.1429 21.1429 17.0495 21.1429 12C21.1429 6.95057 17.0495 2.85718 12 2.85718C6.95057 2.85718 2.85718 6.95057 2.85718 12C2.85718 17.0495 6.95057 21.1429 12 21.1429Z" stroke="black" stroke-linecap="round" stroke-linejoin="round"/>
<path fill-rule="evenodd" clip-rule="evenodd" d="M12 13.1429C12.5714 13.1429 13.1429 12.5715 13.1429 12C13.1429 11.4286 12.5714 10.8572 12 10.8572C11.4286 10.8572 10.8583 11.4286 10.8583 12C10.8583 12.5715 11.4286 13.1429 12 13.1429ZM7.42858 13.1429C8.00001 13.1429 8.57144 12.5715 8.57144 12C8.57144 11.4286 8.00001 10.8572 7.42858 10.8572C6.85715 10.8572 6.28687 11.4286 6.28687 12C6.28687 12.5715 6.85715 13.1429 7.42858 13.1429ZM16.5714 13.1429C17.1429 13.1429 17.7143 12.5715 17.7143 12C17.7143 11.4286 17.1429 10.8572 16.5714 10.8572C16 10.8572 15.4297 11.4286 15.4297 12C15.4297 12.5715 16 13.1429 16.5714 13.1429Z" fill="black"/>
</svg>
