<svg width="24" height="24" viewBox="0 0 24 24" fill="none" xmlns="http://www.w3.org/2000/svg">
<g clip-path="url(#clip0_30_246)">
<path d="M16.2 0.991598C16.9887 0.350921 17.9739 0.00120528 18.99 0.00120528C20.0062 0.00120528 20.9913 0.350921 21.78 0.991598C21.972 1.1491 22.167 1.3456 22.3905 1.5691C22.614 1.7926 22.8105 1.9876 22.968 2.1811C23.6512 3.02245 24.0019 4.08528 23.9535 5.168C23.9051 6.25072 23.461 7.27804 22.7055 8.0551L22.395 8.3686L18.765 11.9986L22.395 15.6286L22.6905 15.9271L22.7055 15.9421C23.4606 16.7191 23.9044 17.7461 23.9528 18.8285C24.0012 19.9108 23.6508 20.9733 22.968 21.8146C22.8105 22.0081 22.614 22.2016 22.3905 22.4251C22.167 22.6486 21.9705 22.8451 21.78 23.0026C20.9913 23.6433 20.0062 23.993 18.99 23.993C17.9739 23.993 16.9887 23.6433 16.2 23.0026C16.005 22.8466 15.813 22.6486 15.5895 22.4251L11.9595 18.7951L8.32953 22.4251C8.10003 22.6546 7.90953 22.8451 7.71754 23.0026C6.92883 23.6433 5.94366 23.993 4.92754 23.993C3.91141 23.993 2.92624 23.6433 2.13753 23.0026C1.94253 22.8466 1.74903 22.6486 1.52553 22.4251C1.30053 22.2001 1.10553 22.0051 0.948035 21.8146C0.307357 21.0259 -0.0423584 20.0407 -0.0423584 19.0246C-0.0423584 18.0085 0.307357 17.0233 0.948035 16.2346C1.10403 16.0396 1.30203 15.8476 1.52553 15.6241L5.15553 11.9941L1.52553 8.3641C1.29603 8.1346 1.10403 7.9441 0.948035 7.7521C0.307357 6.9634 -0.0423584 5.97823 -0.0423584 4.9621C-0.0423584 3.94597 0.307357 2.9608 0.948035 2.1721C1.10553 1.9771 1.30203 1.7821 1.52553 1.5601C1.74903 1.3351 1.94403 1.1401 2.13753 0.982598C2.92606 0.341709 3.91114 -0.00827161 4.92727 -0.00854476C5.9434 -0.00881791 6.92866 0.340633 7.71754 0.981098C7.90953 1.1371 8.10153 1.3306 8.32953 1.5601L11.9595 5.1901L15.5895 1.5601L15.9045 1.2451C16.0001 1.15488 16.0987 1.06784 16.2 0.984098V0.991598ZM20.835 2.1541C20.3136 1.73021 19.6621 1.49881 18.99 1.49881C18.318 1.49881 17.6665 1.73021 17.145 2.1541C16.9724 2.30444 16.8067 2.4626 16.6485 2.6281L11.9685 7.3081L7.28854 2.6281C7.12987 2.46257 6.96369 2.3044 6.79053 2.1541C6.26907 1.73021 5.61755 1.49881 4.94553 1.49881C4.27352 1.49881 3.622 1.73021 3.10053 2.1541C2.92789 2.30444 2.76221 2.4626 2.60403 2.6281C2.35203 2.8801 2.22453 3.0076 2.13003 3.1246C1.70615 3.64606 1.47475 4.29758 1.47475 4.9696C1.47475 5.64161 1.70615 6.29313 2.13003 6.8146C2.22603 6.9316 2.35203 7.0606 2.60403 7.3126L7.28403 11.9926L2.60403 16.6726C2.35203 16.9246 2.22453 17.0521 2.13003 17.1691L1.97703 17.3761C1.62491 17.8955 1.44962 18.5145 1.47718 19.1414C1.50474 19.7683 1.73368 20.3696 2.13003 20.8561C2.22603 20.9731 2.35203 21.1006 2.60403 21.3526C2.85603 21.6046 2.98353 21.7321 3.10053 21.8266C4.10853 22.6456 5.53053 22.6951 6.58053 21.9796L6.78753 21.8266C6.84754 21.7786 6.90753 21.7231 6.98703 21.6481L7.28553 21.3526L11.9655 16.6726L16.6455 21.3526C16.8975 21.6046 17.025 21.7321 17.142 21.8266C18.15 22.6456 19.572 22.6966 20.622 21.9796L20.829 21.8266C20.889 21.7786 20.949 21.7231 21.027 21.6481L21.3255 21.3526C21.4515 21.2266 21.546 21.1321 21.621 21.0541L21.7995 20.8561C22.6185 19.8481 22.6695 18.4261 21.9525 17.3761L21.7995 17.1691L21.621 16.9711L21.3255 16.6726L16.6455 11.9926L21.3255 7.3126L21.621 7.0141L21.7995 6.8146C22.6185 5.8066 22.668 4.3846 21.9525 3.3346L21.7995 3.1276C21.743 3.05899 21.6834 2.99292 21.621 2.9296L21.3255 2.6311L21.027 2.3356L20.829 2.1571L20.835 2.1541Z" fill="black"/>
</g>
<defs>
<clipPath id="clip0_30_246">
<rect width="24" height="24" fill="white"/>
</clipPath>
</defs>
</svg>
